<svg xmlns="http://www.w3.org/2000/svg" xmlns:xlink="http://www.w3.org/1999/xlink" width="40" zoomAndPan="magnify" viewBox="0 0 30 30.000001" height="40" preserveAspectRatio="xMidYMid meet" version="1.0"><defs><clipPath id="f9031bc17c"><path d="M 1 1.003906 L 29 1.003906 L 29 27.859375 L 1 27.859375 Z M 1 1.003906 " clip-rule="nonzero"/></clipPath></defs><g clip-path="url(#f9031bc17c)"><path fill="#000000" d="M 27.410156 15.042969 L 26.269531 15.042969 L 26.269531 26.679688 C 26.257812 26.835938 26.21875 26.988281 26.148438 27.128906 C 26.078125 27.273438 25.984375 27.398438 25.867188 27.503906 C 25.746094 27.609375 25.613281 27.6875 25.460938 27.742188 C 25.3125 27.792969 25.15625 27.816406 24.996094 27.808594 L 18.25 27.808594 L 18.25 19.875 C 18.25 19.648438 18.167969 19.453125 18.007812 19.289062 C 17.84375 19.128906 17.648438 19.046875 17.417969 19.046875 L 12.523438 19.046875 C 12.292969 19.046875 12.097656 19.128906 11.933594 19.289062 C 11.769531 19.453125 11.691406 19.648438 11.691406 19.875 L 11.691406 27.808594 L 4.945312 27.808594 C 4.785156 27.816406 4.628906 27.792969 4.480469 27.742188 C 4.328125 27.691406 4.195312 27.609375 4.078125 27.503906 C 3.957031 27.398438 3.863281 27.277344 3.792969 27.132812 C 3.726562 26.992188 3.6875 26.839844 3.675781 26.683594 L 3.675781 15.042969 L 2.53125 15.042969 C 1.257812 15.042969 0.570312 13.855469 1.402344 13.09375 L 13.953125 1.5625 C 14.109375 1.429688 14.289062 1.328125 14.484375 1.257812 C 14.675781 1.1875 14.878906 1.152344 15.085938 1.152344 C 15.292969 1.152344 15.492188 1.1875 15.6875 1.257812 C 15.882812 1.332031 16.058594 1.433594 16.214844 1.566406 C 20.324219 5.410156 24.4375 9.253906 28.546875 13.097656 C 29.363281 13.867188 28.675781 15.042969 27.410156 15.042969 Z M 27.410156 15.042969 " fill-opacity="1" fill-rule="nonzero"/></g></svg>