<svg xmlns="http://www.w3.org/2000/svg" xmlns:xlink="http://www.w3.org/1999/xlink" width="40" zoomAndPan="magnify" viewBox="0 0 30 30.000001" height="40" preserveAspectRatio="xMidYMid meet" version="1.0"><defs><clipPath id="6bff8fdc2f"><path d="M 3.386719 1.011719 L 24 1.011719 L 24 27.867188 L 3.386719 27.867188 Z M 3.386719 1.011719 " clip-rule="nonzero"/></clipPath><clipPath id="df00ae4e8c"><path d="M 21 3 L 26.613281 3 L 26.613281 25 L 21 25 Z M 21 3 " clip-rule="nonzero"/></clipPath></defs><path fill="#000000" d="M 6.984375 2.691406 C 6.289062 2.691406 5.71875 3.257812 5.71875 3.949219 L 5.71875 25.351562 C 5.71875 25.582031 5.90625 25.769531 6.140625 25.769531 L 17.382812 25.769531 C 17.722656 25.769531 18.039062 25.644531 18.269531 25.390625 L 20.527344 23.148438 C 20.757812 22.917969 20.90625 22.601562 20.90625 22.265625 L 20.90625 3.109375 C 20.90625 2.878906 20.71875 2.691406 20.484375 2.691406 Z M 12.46875 5 L 18.796875 5 C 19.027344 5 19.21875 5.1875 19.21875 5.417969 C 19.21875 5.648438 19.027344 5.839844 18.796875 5.839844 L 12.46875 5.839844 C 12.238281 5.839844 12.046875 5.648438 12.046875 5.417969 C 12.046875 5.1875 12.238281 5 12.46875 5 Z M 12.46875 6.675781 L 16.6875 6.675781 C 16.917969 6.675781 17.109375 6.867188 17.109375 7.097656 C 17.109375 7.328125 16.917969 7.515625 16.6875 7.515625 L 12.46875 7.515625 C 12.238281 7.515625 12.046875 7.328125 12.046875 7.097656 C 12.046875 6.867188 12.238281 6.675781 12.46875 6.675781 Z M 12.46875 9.613281 L 18.796875 9.613281 C 19.027344 9.613281 19.21875 9.804688 19.21875 10.035156 C 19.21875 10.265625 19.027344 10.453125 18.796875 10.453125 L 12.46875 10.453125 C 12.238281 10.453125 12.046875 10.265625 12.046875 10.035156 C 12.046875 9.804688 12.238281 9.613281 12.46875 9.613281 Z M 12.46875 11.292969 L 16.6875 11.292969 C 16.917969 11.292969 17.109375 11.480469 17.109375 11.710938 C 17.109375 11.945312 16.917969 12.132812 16.6875 12.132812 L 12.46875 12.132812 C 12.238281 12.132812 12.046875 11.945312 12.046875 11.710938 C 12.046875 11.480469 12.238281 11.292969 12.46875 11.292969 Z M 12.46875 14.230469 L 18.796875 14.230469 C 19.027344 14.230469 19.21875 14.417969 19.21875 14.648438 C 19.21875 14.878906 19.027344 15.070312 18.796875 15.070312 L 12.46875 15.070312 C 12.238281 15.070312 12.046875 14.878906 12.046875 14.648438 C 12.046875 14.417969 12.238281 14.230469 12.46875 14.230469 Z M 12.46875 15.910156 L 16.6875 15.910156 C 16.917969 15.910156 17.109375 16.097656 17.109375 16.328125 C 17.109375 16.558594 16.917969 16.746094 16.6875 16.746094 L 12.46875 16.746094 C 12.238281 16.746094 12.046875 16.558594 12.046875 16.328125 C 12.046875 16.097656 12.238281 15.910156 12.46875 15.910156 Z M 11.203125 20.734375 C 11.203125 21.425781 10.632812 21.992188 9.9375 21.992188 L 8.671875 21.992188 C 7.976562 21.992188 7.40625 21.425781 7.40625 20.734375 L 7.40625 19.476562 C 7.40625 18.78125 7.976562 18.214844 8.671875 18.214844 L 9.9375 18.214844 C 10.632812 18.214844 11.203125 18.78125 11.203125 19.476562 Z M 11.203125 16.117188 C 11.203125 16.8125 10.632812 17.378906 9.9375 17.378906 L 8.671875 17.378906 C 7.976562 17.378906 7.40625 16.8125 7.40625 16.117188 L 7.40625 14.859375 C 7.40625 14.167969 7.976562 13.601562 8.671875 13.601562 L 9.9375 13.601562 C 10.632812 13.601562 11.203125 14.167969 11.203125 14.859375 Z M 11.203125 11.503906 C 11.203125 12.195312 10.632812 12.761719 9.9375 12.761719 L 8.671875 12.761719 C 7.976562 12.761719 7.40625 12.195312 7.40625 11.503906 L 7.40625 10.242188 C 7.40625 9.550781 7.976562 8.984375 8.671875 8.984375 L 9.9375 8.984375 C 10.632812 8.984375 11.203125 9.550781 11.203125 10.242188 Z M 11.203125 6.886719 C 11.203125 7.578125 10.632812 8.144531 9.9375 8.144531 L 8.671875 8.144531 C 7.976562 8.144531 7.40625 7.578125 7.40625 6.886719 L 7.40625 5.628906 C 7.40625 4.9375 7.976562 4.371094 8.671875 4.371094 L 9.9375 4.371094 C 10.632812 4.371094 11.203125 4.9375 11.203125 5.628906 Z M 16.6875 21.363281 L 12.46875 21.363281 C 12.238281 21.363281 12.046875 21.175781 12.046875 20.945312 C 12.046875 20.714844 12.238281 20.523438 12.46875 20.523438 L 16.6875 20.523438 C 16.917969 20.523438 17.109375 20.714844 17.109375 20.945312 C 17.109375 21.175781 16.917969 21.363281 16.6875 21.363281 Z M 12.46875 19.683594 C 12.238281 19.683594 12.046875 19.496094 12.046875 19.265625 C 12.046875 19.035156 12.238281 18.847656 12.46875 18.847656 L 18.796875 18.847656 C 19.027344 18.847656 19.21875 19.035156 19.21875 19.265625 C 19.21875 19.496094 19.027344 19.683594 18.796875 19.683594 Z M 17.953125 24.550781 L 17.953125 23.042969 C 17.953125 22.917969 18.039062 22.832031 18.164062 22.832031 L 19.683594 22.832031 Z M 17.953125 24.550781 " fill-opacity="1" fill-rule="nonzero"/><g clip-path="url(#6bff8fdc2f)"><path fill="#000000" d="M 22.445312 24.679688 L 22.382812 24.488281 L 22.382812 26.1875 C 22.382812 26.652344 22.003906 27.027344 21.539062 27.027344 L 5.085938 27.027344 C 4.621094 27.027344 4.242188 26.652344 4.242188 26.1875 L 4.242188 2.691406 C 4.242188 2.230469 4.621094 1.851562 5.085938 1.851562 L 21.539062 1.851562 C 22.003906 1.851562 22.382812 2.230469 22.382812 2.691406 L 22.382812 2.816406 C 22.636719 2.671875 22.910156 2.566406 23.226562 2.523438 C 23.144531 1.683594 22.425781 1.011719 21.539062 1.011719 L 5.085938 1.011719 C 4.15625 1.011719 3.398438 1.769531 3.398438 2.691406 L 3.398438 26.1875 C 3.398438 27.113281 4.15625 27.867188 5.085938 27.867188 L 21.539062 27.867188 C 22.46875 27.867188 23.226562 27.113281 23.226562 26.1875 L 23.226562 25.496094 C 22.867188 25.351562 22.574219 25.054688 22.445312 24.679688 Z M 22.445312 24.679688 " fill-opacity="1" fill-rule="nonzero"/></g><g clip-path="url(#df00ae4e8c)"><path fill="#000000" d="M 25.335938 4.789062 C 25.210938 3.972656 24.515625 3.320312 23.648438 3.320312 C 22.722656 3.320312 21.960938 4.074219 21.960938 5 L 21.960938 14.230469 C 21.960938 14.378906 22.046875 14.523438 22.171875 14.585938 L 22.171875 20.484375 C 22.171875 20.816406 22.214844 21.152344 22.320312 21.488281 L 23.25 24.425781 C 23.3125 24.59375 23.460938 24.71875 23.648438 24.71875 C 23.839844 24.71875 23.988281 24.59375 24.050781 24.425781 L 24.976562 21.488281 C 25.082031 21.175781 25.125 20.816406 25.125 20.484375 L 25.125 14.585938 C 25.253906 14.523438 25.335938 14.378906 25.335938 14.230469 L 25.335938 5.628906 C 25.570312 5.628906 25.757812 5.816406 25.757812 6.046875 L 25.757812 9.824219 C 25.757812 10.054688 25.949219 10.242188 26.179688 10.242188 C 26.414062 10.242188 26.601562 10.054688 26.601562 9.824219 L 26.601562 6.046875 C 26.601562 5.355469 26.03125 4.789062 25.335938 4.789062 Z M 24.28125 20.503906 C 24.28125 20.503906 24.28125 20.523438 24.28125 20.523438 L 23.015625 20.523438 C 23.015625 20.523438 23.015625 20.503906 23.015625 20.503906 L 23.015625 14.648438 L 24.28125 14.648438 Z M 24.492188 13.8125 L 22.804688 13.8125 L 22.804688 12.972656 L 24.492188 12.972656 Z M 24.492188 13.8125 " fill-opacity="1" fill-rule="nonzero"/></g><path fill="#000000" d="M 9.664062 5.523438 L 8.902344 6.152344 C 8.734375 6.046875 8.480469 6.070312 8.355469 6.238281 C 8.207031 6.425781 8.226562 6.675781 8.417969 6.824219 L 8.648438 7.011719 C 8.734375 7.074219 8.820312 7.117188 8.925781 7.117188 C 9.03125 7.117188 9.113281 7.097656 9.199219 7.011719 L 10.230469 6.175781 C 10.421875 6.027344 10.445312 5.753906 10.296875 5.585938 C 10.125 5.398438 9.851562 5.375 9.664062 5.523438 Z M 9.664062 5.523438 " fill-opacity="1" fill-rule="nonzero"/><path fill="#000000" d="M 9.664062 10.140625 L 8.902344 10.769531 C 8.734375 10.664062 8.480469 10.683594 8.355469 10.851562 C 8.207031 11.042969 8.226562 11.292969 8.417969 11.441406 L 8.648438 11.628906 C 8.734375 11.691406 8.820312 11.734375 8.925781 11.734375 C 9.03125 11.734375 9.113281 11.710938 9.199219 11.628906 L 10.230469 10.789062 C 10.421875 10.644531 10.445312 10.371094 10.296875 10.203125 C 10.148438 10.035156 9.851562 9.992188 9.664062 10.140625 Z M 9.664062 10.140625 " fill-opacity="1" fill-rule="nonzero"/><path fill="#000000" d="M 9.664062 14.753906 L 8.902344 15.382812 C 8.734375 15.28125 8.480469 15.300781 8.355469 15.46875 C 8.207031 15.65625 8.226562 15.910156 8.417969 16.054688 L 8.648438 16.246094 C 8.734375 16.308594 8.820312 16.347656 8.925781 16.347656 C 9.03125 16.347656 9.113281 16.328125 9.199219 16.246094 L 10.230469 15.40625 C 10.421875 15.257812 10.445312 14.984375 10.296875 14.816406 C 10.125 14.628906 9.851562 14.609375 9.664062 14.753906 Z M 9.664062 14.753906 " fill-opacity="1" fill-rule="nonzero"/><path fill="#000000" d="M 9.664062 19.371094 L 8.902344 20 C 8.734375 19.894531 8.480469 19.917969 8.355469 20.082031 C 8.207031 20.273438 8.226562 20.523438 8.417969 20.671875 L 8.648438 20.859375 C 8.734375 20.921875 8.820312 20.964844 8.925781 20.964844 C 9.03125 20.964844 9.113281 20.945312 9.199219 20.859375 L 10.230469 20.019531 C 10.421875 19.875 10.445312 19.601562 10.296875 19.433594 C 10.148438 19.265625 9.851562 19.222656 9.664062 19.371094 Z M 9.664062 19.371094 " fill-opacity="1" fill-rule="nonzero"/></svg>