<svg xmlns="http://www.w3.org/2000/svg" xmlns:xlink="http://www.w3.org/1999/xlink" width="40" zoomAndPan="magnify" viewBox="0 0 30 30.000001" height="40" preserveAspectRatio="xMidYMid meet" version="1.0"><defs><clipPath id="2be7188839"><path d="M 2.582031 2.378906 L 27.261719 2.378906 L 27.261719 26.332031 L 2.582031 26.332031 Z M 2.582031 2.378906 " clip-rule="nonzero"/></clipPath></defs><g clip-path="url(#2be7188839)"><path fill="#000000" d="M 2.691406 5.875 C 2.691406 5.875 2.621094 2.535156 5.949219 2.535156 C 9.273438 2.535156 23.996094 2.636719 23.996094 2.636719 C 23.996094 2.636719 27.1875 2.671875 27.1875 5.910156 C 27.1875 9.148438 27.1875 16.566406 27.1875 16.566406 C 27.1875 16.566406 27.253906 19.71875 24.082031 19.71875 L 22.898438 19.703125 L 22.898438 26.125 L 18.15625 19.601562 L 5.96875 19.601562 C 5.96875 19.601562 2.800781 19.78125 2.800781 16.386719 C 2.800781 12.992188 2.691406 5.875 2.691406 5.875 Z M 11.394531 10.789062 C 11.394531 9.746094 10.558594 8.898438 9.53125 8.898438 C 8.503906 8.898438 7.671875 9.746094 7.671875 10.789062 C 7.671875 11.832031 8.503906 12.675781 9.53125 12.675781 C 10.558594 12.675781 11.394531 11.832031 11.394531 10.789062 Z M 22.207031 10.789062 C 22.207031 9.746094 21.371094 8.898438 20.34375 8.898438 C 19.316406 8.898438 18.484375 9.746094 18.484375 10.789062 C 18.484375 11.832031 19.316406 12.675781 20.34375 12.675781 C 21.371094 12.675781 22.207031 11.832031 22.207031 10.789062 Z M 16.800781 10.789062 C 16.800781 9.746094 15.964844 8.898438 14.9375 8.898438 C 13.910156 8.898438 13.078125 9.746094 13.078125 10.789062 C 13.078125 11.832031 13.910156 12.675781 14.9375 12.675781 C 15.964844 12.675781 16.800781 11.832031 16.800781 10.789062 Z M 16.800781 10.789062 " fill-opacity="1" fill-rule="nonzero"/></g></svg>