<svg xmlns="http://www.w3.org/2000/svg" xmlns:xlink="http://www.w3.org/1999/xlink" width="40" zoomAndPan="magnify" viewBox="0 0 30 30.000001" height="40" preserveAspectRatio="xMidYMid meet" version="1.0"><defs><clipPath id="83ffb640b6"><path d="M 11 24 L 18 24 L 18 27.074219 L 11 27.074219 Z M 11 24 " clip-rule="nonzero"/></clipPath><clipPath id="508d3ebde7"><path d="M 3.386719 1.671875 L 25.886719 1.671875 L 25.886719 24 L 3.386719 24 Z M 3.386719 1.671875 " clip-rule="nonzero"/></clipPath></defs><g clip-path="url(#83ffb640b6)"><path fill="#231f20" d="M 17.464844 24.859375 C 17.410156 24.777344 17.300781 24.722656 17.230469 24.734375 L 12.058594 24.761719 C 12.058594 24.761719 11.875 24.816406 11.824219 24.898438 C 11.773438 24.980469 11.765625 25.082031 11.804688 25.167969 C 12.292969 26.328125 13.414062 27.070312 14.640625 27.070312 C 15.886719 27.070312 17.003906 26.3125 17.492188 25.132812 C 17.523438 25.042969 17.515625 24.9375 17.464844 24.859375 Z M 17.464844 24.859375 " fill-opacity="1" fill-rule="nonzero"/></g><g clip-path="url(#508d3ebde7)"><path fill="#231f20" d="M 25.6875 22.011719 L 22.515625 19.300781 L 22.515625 12.066406 C 22.515625 8.402344 20.121094 5.300781 16.855469 4.3125 C 16.867188 4.207031 16.890625 4.097656 16.890625 3.984375 C 16.890625 2.710938 15.882812 1.675781 14.640625 1.675781 C 13.398438 1.675781 12.390625 2.710938 12.390625 3.984375 C 12.390625 4.097656 12.410156 4.207031 12.425781 4.3125 C 9.160156 5.300781 6.765625 8.394531 6.765625 12.066406 L 6.765625 19.300781 L 3.585938 22.011719 C 3.457031 22.121094 3.386719 22.285156 3.386719 22.457031 L 3.386719 23.03125 C 3.386719 23.351562 3.636719 23.605469 3.949219 23.605469 L 25.324219 23.605469 C 25.636719 23.605469 25.886719 23.351562 25.886719 23.03125 L 25.886719 22.457031 C 25.886719 22.285156 25.8125 22.121094 25.6875 22.011719 Z M 13.523438 4.078125 C 13.523438 4.046875 13.511719 4.015625 13.511719 3.984375 C 13.511719 3.347656 14.019531 2.828125 14.640625 2.828125 C 15.261719 2.828125 15.761719 3.347656 15.761719 3.984375 C 15.761719 4.015625 15.757812 4.046875 15.75 4.078125 C 15.386719 4.027344 15.015625 3.984375 14.632812 3.984375 C 14.253906 3.984375 13.886719 4.019531 13.523438 4.078125 Z M 13.523438 4.078125 " fill-opacity="1" fill-rule="nonzero"/></g></svg>